<svg xmlns="http://www.w3.org/2000/svg" xmlns:xlink="http://www.w3.org/1999/xlink" xmlns:lucid="lucid" width="1335.5" height="620.22"><g transform="translate(-220 -303.66666666666663)" lucid:page-tab-id="o9iwZ4z2DV7C"><path d="M0 0h1760v1360H0z" fill="#fff"/><path d="M1015.5 496c0-3.3 2.7-6 6-6h103c3.3 0 6 2.7 6 6v8c0 3.3-1.9 7.9-4.24 10.24l-1.52 1.52c-2.34 2.34-6.93 4.24-10.24 4.24h-93c-3.3 0-6-2.7-6-6z" fill="#fff"/><path d="M1130.5 490v20l-10 10h-105" stroke="#5e5e5e" stroke-width="3" fill="none"/><path d="M1015.5 496c0-3.3 2.7-6 6-6h248c3.3 0 6 2.7 6 6v186.22c0 3.32-2.7 6-6 6h-248c-3.3 0-6-2.68-6-6z" stroke="#5e5e5e" stroke-width="3" fill="none"/><use xlink:href="#a" transform="matrix(1,0,0,1,1023.5,490.00000000000006) translate(0 18.6)"/><path d="M1335.5 496c0-3.3 2.7-6 6-6h103c3.3 0 6 2.7 6 6v8c0 3.3-1.9 7.9-4.24 10.24l-1.52 1.52c-2.34 2.34-6.93 4.24-10.24 4.24h-93c-3.3 0-6-2.7-6-6z" fill="#fff"/><path d="M1450.5 490v20l-10 10h-105" stroke="#5e5e5e" stroke-width="3" fill="none"/><path d="M1335.5 496c0-3.3 2.7-6 6-6h188c3.3 0 6 2.7 6 6v186.22c0 3.32-2.7 6-6 6h-188c-3.3 0-6-2.68-6-6z" stroke="#5e5e5e" stroke-width="3" fill="none"/><use xlink:href="#b" transform="matrix(1,0,0,1,1343.5,490.00000000000006) translate(0 18.6)"/><path d="M1495.5 645.8c0 6.64-26.86 12-60 12s-60-5.36-60-12v-96c0-6.6 26.86-12 60-12s60 5.4 60 12z" stroke="#77e5d7" stroke-width="3" fill="#fff"/><path d="M1495.5 549.8c0 6.64-26.86 12-60 12s-60-5.36-60-12" stroke="#77e5d7" stroke-width="3" fill="none"/><use xlink:href="#c" transform="matrix(1,0,0,1,1380.5,566.8143199965244) translate(7.5 47.34027777777778)"/><path d="M738.12 761.74v-6h-4.8v6.05h-1.87V748.5h1.86v5.73h4.82v-5.8h1.86v13.3zM744.98 761.74v-11.72h-3.3v-1.56h8.5v1.56h-3.34v11.72zM754.55 761.74v-11.72h-3.3v-1.56h8.52v1.56h-3.37v11.72zM763.23 756.58v5.1h-1.8v-13.27h3.9c.68 0 1.28.16 1.86.54.57.36.96.8 1.25 1.43.3.7.44 1.35.43 2.1.06 1.14-.3 2.14-1.04 3-.67.76-1.55 1.15-2.57 1.1zm0-1.47h1.9c.56.03 1.06-.2 1.4-.68.7-1.2.7-2.58 0-3.8-.35-.46-.84-.7-1.4-.68h-1.9z" stroke="#fff" stroke-opacity="0" fill="#77e5d7"/><path d="M719.5 768.22h-13.6c-5.76 0-10.4-4.64-10.4-10.4v-59.2c0-5.76 4.64-10.4 10.4-10.4h59.2c5.76 0 10.4 4.64 10.4 10.4v39.12h-3.44v-39.12c0-3.84-3.12-6.96-6.96-6.96h-59.2c-3.84 0-6.96 3.12-6.96 6.96v59.2c0 3.84 3.12 6.96 6.96 6.96h13.6z" stroke="#fff" stroke-opacity="0" fill="#77e5d7"/><path d="M775.5 768.22h-52.87V740.9h52.87zm-49.48-3.4h46.1V744.3h-46.1z" stroke="#fff" stroke-opacity="0" fill="#77e5d7"/><path d="M775.5 768.22h-10.4v-3.4h7v-7h3.4v10.4z" stroke="#fff" stroke-opacity="0" fill="#77e5d7"/><path d="M706.3 689.85h58.04c6.4 0 9.57 3.15 9.57 9.53v57.76c0 6.37-3.16 9.52-9.56 9.52H706.3c-6.4 0-9.57-3.15-9.57-9.52v-57.76c0-6.38 3.17-9.53 9.57-9.53z" stroke="#fff" stroke-opacity="0" stroke-width=".38" fill="#fff" fill-opacity="0"/><use xlink:href="#d" transform="matrix(1,0,0,1,665.5,777.223639903771) translate(20.308641975308646 17.77777777777778)"/><use xlink:href="#e" transform="matrix(1,0,0,1,665.5,777.223639903771) translate(83.88888888888889 17.77777777777778)"/><path d="M510.6 729.22H441v-2h69.6m166.4 2H549.02v-2H677" fill="#5e5e5e"/><path d="M441.03 729.22H440v-2h1.03M692.26 728.22L678 732.86v-9.27z" fill="#5e5e5e"/><path d="M695.5 728.22l-18.5 6.02V722.2m2 9.28l10.03-3.26-10.03-3.26" fill="#5e5e5e"/><use xlink:href="#f" transform="matrix(1,0,0,1,510.60083348334985,717.5569732371043) translate(0 14.222222222222223)"/><path d="M347.86 434.6c0 13.68-11.13 24.72-24.92 24.72-13.8 0-24.92-11.04-24.92-24.72 0-13.56 11.12-24.6 24.92-24.6 13.8 0 24.92 11.04 24.92 24.6m-6.68 33.12l-18.24 25.32-18.25-25.32h-26.26V530h89v-62.28z" stroke="#000" stroke-opacity="0" stroke-width="3" fill="#77e5d7"/><path d="M278.44 467.7V530h89v-62.3l-27.32-17.9 4.7-21.72-21.26-16.73-23.23 18.87 5.97 20.64z" stroke="#000" stroke-opacity="0" stroke-width="0" fill="#1e3100" fill-opacity="0"/><use xlink:href="#g" transform="matrix(1,0,0,1,248.43831042018076,539) translate(36.05 14.4)"/><use xlink:href="#h" transform="matrix(1,0,0,1,248.43831042018076,539) translate(78.95 14.4)"/><path d="M516.68 491H368.44v-2h148.24M677 491H546.26v-2H677" fill="#5e5e5e"/><path d="M368.46 491h-1.02v-2h1.02M692.26 490L678 494.64v-9.28z" fill="#5e5e5e"/><path d="M695.5 490l-18.5 6v-12m2 9.26l10.03-3.26-10.03-3.26" fill="#5e5e5e"/><use xlink:href="#i" transform="matrix(1,0,0,1,516.6790317533003,479.3333333333332) translate(0 14.222222222222223)"/><path d="M735.5 449V346c0-3.3-2.7-6-6-6H328.94c-3.32 0-6 2.7-6 6v45.5" stroke="#5e5e5e" stroke-width="2" fill="none"/><path d="M736.5 450h-2v-1.03h2" fill="#5e5e5e"/><path d="M322.94 406.76l-4.64-14.26h9.27z" stroke="#5e5e5e" stroke-width="2" fill="#5e5e5e"/><use xlink:href="#j" transform="matrix(1,0,0,1,458.00116603231834,314.66666666666663) translate(0 14.222222222222223)"/><use xlink:href="#k" transform="matrix(1,0,0,1,458.00116603231834,314.66666666666663) translate(41.38271604938272 14.222222222222223)"/><path d="M833.5 729.22h-57v-2h57m263.5-128.4H951.63l-2.64.7-1.8 1.78-.7 2.65v118.4l-.92 3.42-2.53 2.53-3.42.92H891.6v-2h47.77l2.64-.7 1.8-1.8.7-2.63V603.67l.92-3.4 2.53-2.54 3.42-.93H1097" fill="#5e5e5e"/><path d="M776.53 729.22h-1.03v-2h1.03M1112.26 597.8l-14.26 4.65v-9.27z" fill="#5e5e5e"/><path d="M1115.5 597.8l-18.5 6.03V591.8m2 9.27l10.03-3.26-10.03-3.24" fill="#5e5e5e"/><use xlink:href="#l" transform="matrix(1,0,0,1,833.511007187206,717.5569732371043) translate(0 14.222222222222223)"/><path d="M943.05 489.92l2.53 2.53.92 3.42v95.8l.7 2.65 1.8 1.78 2.63.7H1097v2H951.37l-3.42-.9-2.53-2.54-.92-3.4v-95.83l-.7-2.64-1.8-1.8-2.63-.7h-55.8v-2h56.06m-163.13 2v-2h64.76v2" fill="#5e5e5e"/><path d="M776.53 491h-1.03v-2h1.03M1112.26 597.8l-14.26 4.65v-9.27z" fill="#5e5e5e"/><path d="M1115.5 597.8l-18.5 6.03V591.8m2 9.27l10.03-3.26-10.03-3.24" fill="#5e5e5e"/><use xlink:href="#m" transform="matrix(1,0,0,1,841.2600623183755,479.3333333333333) translate(0 14.222222222222223)"/><path d="M317 775.14h15.8v11.73H317v-11.73zM377.2 643.22H440v153.34h-62.8V643.22z" fill="#77e5d7"/><path d="M241 669.06h166.2V775.3H241V669.07z" fill="#77e5d7"/><path d="M248.6 675.52h151.6v95.03H248.6v-95.03z" fill="#fff" fill-opacity=".98"/><path d="M247.6 787.72H399l-7.4 25.33H240l7.6-25.33z" fill="#77e5d7"/><path d="M246.6 786.87h155l13 26.35h-155l-13-26.35z" fill="#77e5d7"/><path d="M299.2 806.42h55.2v5.27h-55.2v-5.28zM268.8 790.95h4.2v3.4h-4.2v-3.4zM276 791.12h4.2v3.4H276v-3.4zM285.4 797.24h4v3.4h-4v-3.4zM283.8 790.78h4.2v3.4h-4.2v-3.4zM290.8 790.95h4.2v3.4h-4.2v-3.4zM297.8 790.78h4v3.4h-4v-3.4zM340.4 791.3h4.2v3.4h-4.2v-3.4zM346.8 791.3h4v3.4h-4v-3.4zM352.6 791.3h4.2v3.4h-4.2v-3.4zM359.6 791.3h4.2v3.4h-4.2v-3.4zM366.2 791.3h4v3.4h-4v-3.4zM358.4 796.9h4.2v3.4h-4.2v-3.4zM373.6 791.3h4.2v3.4h-4.2v-3.4zM293 797.07h4.2v3.4H293v-3.4zM301 797.07h4v3.4h-4v-3.4zM352 796.73h3.6v3.4H352v-3.4zM345 796.73h4v3.4h-4v-3.4zM305.4 790.95h4v3.4h-4v-3.4zM313 791.12h4.2v3.4H313v-3.4zM320.2 790.95h4.2v3.4h-4.2v-3.4zM328.2 790.95h4v3.4h-4v-3.4zM334.6 791.12h4.2v3.4h-4.2v-3.4zM308 796.9h4v3.4h-4v-3.4zM315.6 796.9h4.2v3.4h-4.2v-3.4zM323 797.07h4v3.4h-4v-3.4zM330 797.07h4.2v3.4H330v-3.4zM337.4 796.73h4v3.4h-4v-3.4z" fill="#fff"/><path d="M240.2 813.05l174.4-.5-12.4-25.68-154.4.17-7.6 26z" fill="none"/><path d="M421.6 651.2h11.2c1.2 0 1.2 0 1.2 1.2s0 1.2-1.2 1.2h-11.2c-1.2 0-1.2 0-1.2-1.2s0-1.2 1.2-1.2zM421.6 656.82H433c1 0 1 0 1 1.02s0 1.02-1 1.02h-11.4c-1.2 0-1.2 0-1.2-1.02s0-1.02 1.2-1.02zM377.4 667.36h30.2v1.36h-30.2v-1.36zM407.6 667.36h1.4v108.3h-1.4v-108.3z" fill="#fff"/><path d="M377.2 775.48h31.6V777h-31.6v-1.52zM377.4 784.15h24.2c1.2 0 1.2 0 1.2 1.2 0 1.35 0 1.35-1.2 1.35h-24.2c-1.2 0-1.2 0-1.2-1.36 0-1.2 0-1.2 1.2-1.2z" fill="#fff"/><path d="M402.6 784.5l6.8 11.72-2 1.2-6.6-11.9 1.8-1.03zM316.2 775.14h17v1.7h-17v-1.7zM316.8 785H333v1.87h-16.2V785z" fill="#fff"/><use xlink:href="#n" transform="matrix(1,0,0,1,210,813.223639903771) translate(70.73487654320988 19.444444444444443)"/><path d="M322.88 747.3l26.64-14.57v-29.07l-26.64 14.53v29.1z" fill="#fff"/><path d="M296.3 732.7l26.6 14.58V718.2l-26.6-14.52v29.03zM349.33 703.67l-26.43-14.44-26.43 14.44 26.43 14.44 26.43-14.43z" fill="#fff"/><path d="M322.9 717.25l24.9-13.58h-.03l-24.87 13.58zM298.03 703.66H298l24.9 13.6-24.87-13.6z" fill="#fff"/><path d="M349.44 702.74l-26.56-14.52-26.56 14.52-.82.48v30l26.62 14.52.82.48.82-.48 26.62-14.52v-30zm-.82 29.52l-24.86 13.62v-27.24l24.92-13.56zm-26.56 13.62l-24.9-13.62v-27.18l24.9 13.56zm-24.04-42.24l24.86-13.56 24.92 13.56-24.92 13.62-24.86-13.62z" fill="#444"/><path d="M323 733.9l14.32-7.83v-15.6l-14.3 7.8v15.62zM308.48 726.07l14.3 7.82v-15.63l-14.3-7.8v15.6zM337.16 710.26l-14.26-7.8-14.26 7.8 14.26 7.8 14.26-7.8z" fill="#ffd44f"/><path d="M322.9 717.27l12.82-7-12.82 7zM310.08 710.26l12.8 7-12.8-7z" fill="#96bf3d"/><path d="M337.4 709.3l-14.5-7.9-14.52 7.9-.83.48v16.84l14.5 7.93.86.47.84-.47 14.53-7.93v-16.84zm-.82 16.38l-12.84 7.02v-14.05l12.84-7zm-14.53 7.02l-12.85-7.02v-14.02l12.85 7zm-11.95-22.45l12.8-7 12.82 7-12.8 7.03-12.86-7z" fill="#fff"/><use xlink:href="#o" transform="matrix(1,0,0,1,295.5,748.223639903771) translate(-7.067901234567898 17.77777777777778)"/><path d="M738.12 523.5v-5.97h-4.8v6.04h-1.87V510.3h1.86V516h4.82v-5.78h1.86v13.27zM744.98 523.5v-11.7h-3.3v-1.56h8.5v1.55h-3.34v11.7zM754.55 523.5v-11.7h-3.3v-1.56h8.52v1.55h-3.37v11.7zM763.23 518.35v5.1h-1.8V510.2h3.9c.68-.03 1.28.13 1.86.52.57.36.96.8 1.25 1.43.3.7.44 1.34.43 2.1.06 1.14-.3 2.14-1.04 3-.67.76-1.55 1.14-2.57 1.1zm0-1.46h1.9c.56 0 1.06-.23 1.4-.7.7-1.2.7-2.6 0-3.8-.35-.46-.84-.7-1.4-.7h-1.9z" stroke="#fff" stroke-opacity="0" fill="#77e5d7"/><path d="M719.5 530h-13.6c-5.76 0-10.4-4.64-10.4-10.4v-59.2c0-5.76 4.64-10.4 10.4-10.4h59.2c5.76 0 10.4 4.64 10.4 10.4v39.12h-3.44V460.4c0-3.84-3.12-6.96-6.96-6.96h-59.2c-3.84 0-6.96 3.12-6.96 6.96v59.2c0 3.84 3.12 6.96 6.96 6.96h13.6z" stroke="#fff" stroke-opacity="0" fill="#77e5d7"/><path d="M775.5 530h-52.87v-27.34h52.87zm-49.48-3.42h46.1v-20.5h-46.1z" stroke="#fff" stroke-opacity="0" fill="#77e5d7"/><path d="M775.5 530h-10.4v-3.4h7v-7h3.4V530z" stroke="#fff" stroke-opacity="0" fill="#77e5d7"/><path d="M706.3 451.63h58.04c6.4 0 9.57 3.15 9.57 9.52v57.77c0 6.37-3.16 9.52-9.56 9.52H706.3c-6.4 0-9.57-3.15-9.57-9.52v-57.77c0-6.37 3.17-9.52 9.57-9.52z" stroke="#fff" stroke-opacity="0" stroke-width=".38" fill="#fff" fill-opacity="0"/><use xlink:href="#d" transform="matrix(1,0,0,1,665.5,539) translate(20.308641975308646 17.77777777777778)"/><use xlink:href="#e" transform="matrix(1,0,0,1,665.5,539) translate(83.88888888888889 17.77777777777778)"/><path d="M1148.4 622.14l31.98-17.2V570.6l-32 17.16v34.36z" fill="#fff"/><path d="M1116.46 604.92l31.95 17.18v-34.32l-31.94-17.13v34.27zM1180.16 570.63l-31.74-17.04-31.75 17.03 31.75 17.05 31.74-17.05z" fill="#fff"/><path d="M1148.4 586.67l29.9-16.03-.02-.02-29.87 16.05z" fill="#fff"/><path d="M1118.54 570.62l-.03.02 29.9 16.03-29.86-16.05z" fill="#fff"/><path d="M1180.3 569.54l-31.9-17.13-31.9 17.14-1 .57v35.42l31.97 17.14 1 .56.98-.56 31.97-17.14v-35.4zm-1 34.85l-29.85 16.06V588.3l29.92-16zm-31.9 16.06l-29.92-16.07v-32.1l29.92 16zm-28.87-49.85l29.86-16 29.92 16-29.93 16.08-29.87-16.07z" fill="#444"/><path d="M1148.54 606.3l17.2-9.23v-18.4l-17.2 9.2v18.44zM1131.1 597.07l17.18 9.24v-18.44l-17.18-9.2v18.4zM1165.54 578.4l-17.13-9.18-17.12 9.2 17.13 9.2 17.14-9.2z" fill="#5a69a4"/><path d="M1148.4 586.7l15.42-8.27-.02-.02-15.4 8.28zM1133.02 578.4l-.02.03 15.4 8.26v-.02l-15.38-8.27z" fill="#96bf3d"/><path d="M1165.84 577.3l-17.42-9.33-17.45 9.32-1 .55v19.88l17.42 9.36 1.02.54 1-.55 17.46-9.37v-19.88zm-1 19.3l-15.42 8.3v-16.58l15.43-8.25zm-17.45 8.3l-15.44-8.3v-16.53l15.43 8.25zm-14.37-26.5l15.4-8.25 15.38 8.25-15.38 8.3-15.42-8.26z" fill="#fff"/><use xlink:href="#p" transform="matrix(1,0,0,1,1115.5,623.2236399037711) translate(10.191358024691361 17.77777777777778)"/><path d="M1182.42 597.8h173.08" stroke="#5e5e5e" stroke-width="2" fill="none"/><path d="M1182.44 598.8h-1.02v-2h1.02" fill="#5e5e5e"/><path d="M1370.76 597.8l-14.26 4.65v-9.27z" stroke="#5e5e5e" stroke-width="2" fill="#5e5e5e"/><path d="M1176.73 848.22h-43.24c-1 0-1.74-.8-1.74-1.68V769.9c0-.88.75-1.68 1.73-1.68h43.23c.98 0 1.73.8 1.73 1.68v76.64c0 .88-.75 1.68-1.73 1.68zm-41.56-3.44h39.88v-73.12h-39.88z" stroke="#fff" stroke-opacity="0" fill="#232f3e"/><path d="M1139.88 776.2h30.44v3.4h-30.44v-3.4zM1139.88 784.2h30.44v3.4h-30.44v-3.4zM1139.88 792.16h30.44v3.4h-30.44v-3.4zM1139.88 800.14h30.44v3.4h-30.44v-3.4z" stroke="#fff" stroke-opacity="0" fill="#232f3e"/><use xlink:href="#q" transform="matrix(1,0,0,1,1101.7583333333332,857.223639903771) translate(30.90740740740741 17.77777777777778)"/><use xlink:href="#r" transform="matrix(1,0,0,1,1101.7583333333332,857.223639903771) translate(22.69753086419753 44.44444444444444)"/><path d="M1155.1 690.72v8.5m0 8.5v17m0 8.5v17m0 8.5v8.5" stroke="#5e5e5e" stroke-width="2" fill="none"/><path d="M1156.1 690.75h-2v-1.03h2M1156.1 768.22h-2v-1.02h2" fill="#5e5e5e"/><path d="M1179.46 808.22h10.63m10.62 0h42.53m10.64 0h21.25m10.64 0h42.52m10.63 0h21.26m10.65 0h42.53m10.63 0h10.64l3.03-.82 2.15-2.15.82-3.03V788.3m0-13.95V718.6m0-13.94v-13.94" stroke="#5e5e5e" stroke-width="2" fill="none"/><path d="M1179.48 809.22h-1.02v-2h1.02M1441.64 690.75h-2v-1.03h2" fill="#5e5e5e"/><defs><path d="M205 0l-28-72H64L36 0H1l101-248h38L239 0h-34zm-38-99l-47-123c-12 45-31 82-46 123h93" id="s"/><path d="M115-194c55 1 70 41 70 98S169 2 115 4C84 4 66-9 55-30l1 105H24l-1-265h31l2 30c10-21 28-34 59-34zm-8 174c40 0 45-34 45-75s-6-73-45-74c-42 0-51 32-51 76 0 43 10 73 51 73" id="t"/><path d="M141-36C126-15 110 5 73 4 37 3 15-17 15-53c-1-64 63-63 125-63 3-35-9-54-41-54-24 1-41 7-42 31l-33-3c5-37 33-52 76-52 45 0 72 20 72 64v82c-1 20 7 32 28 27v20c-31 9-61-2-59-35zM48-53c0 20 12 33 32 33 41-3 63-29 60-74-43 2-92-5-92 41" id="u"/><path d="M96-169c-40 0-48 33-48 73s9 75 48 75c24 0 41-14 43-38l32 2c-6 37-31 61-74 61-59 0-76-41-82-99-10-93 101-131 147-64 4 7 5 14 7 22l-32 3c-4-21-16-35-41-35" id="v"/><path d="M106-169C34-169 62-67 57 0H25v-261h32l-1 103c12-21 28-36 61-36 89 0 53 116 60 194h-32v-121c2-32-8-49-39-48" id="w"/><path d="M100-194c63 0 86 42 84 106H49c0 40 14 67 53 68 26 1 43-12 49-29l28 8c-11 28-37 45-77 45C44 4 14-33 15-96c1-61 26-98 85-98zm52 81c6-60-76-77-97-28-3 7-6 17-6 28h103" id="x"/><g id="a"><use transform="matrix(0.05,0,0,0.05,0,0)" xlink:href="#s"/><use transform="matrix(0.05,0,0,0.05,12,0)" xlink:href="#t"/><use transform="matrix(0.05,0,0,0.05,22,0)" xlink:href="#u"/><use transform="matrix(0.05,0,0,0.05,32,0)" xlink:href="#v"/><use transform="matrix(0.05,0,0,0.05,41,0)" xlink:href="#w"/><use transform="matrix(0.05,0,0,0.05,51,0)" xlink:href="#x"/></g><path d="M240 0l2-218c-23 76-54 145-80 218h-23L58-218 59 0H30v-248h44l77 211c21-75 51-140 76-211h43V0h-30" id="y"/><path d="M179-190L93 31C79 59 56 82 12 73V49c39 6 53-20 64-50L1-190h34L92-34l54-156h33" id="z"/><path d="M185-189c-5-48-123-54-124 2 14 75 158 14 163 119 3 78-121 87-175 55-17-10-28-26-33-46l33-7c5 56 141 63 141-1 0-78-155-14-162-118-5-82 145-84 179-34 5 7 8 16 11 25" id="A"/><path d="M140-251c81 0 123 46 123 126C263-53 228-8 163 1c7 30 30 48 69 40v23c-55 16-95-15-103-61C56-3 17-48 17-125c0-80 42-126 123-126zm0 227c63 0 89-41 89-101s-29-99-89-99c-61 0-89 39-89 99S79-25 140-24" id="B"/><path d="M30 0v-248h33v221h125V0H30" id="C"/><g id="b"><use transform="matrix(0.05,0,0,0.05,0,0)" xlink:href="#y"/><use transform="matrix(0.05,0,0,0.05,14.950000000000001,0)" xlink:href="#z"/><use transform="matrix(0.05,0,0,0.05,23.950000000000003,0)" xlink:href="#A"/><use transform="matrix(0.05,0,0,0.05,35.95,0)" xlink:href="#B"/><use transform="matrix(0.05,0,0,0.05,49.95,0)" xlink:href="#C"/></g><path fill="#77e5d7" d="M30-248c118-7 216 8 213 122C240-48 200 0 122 0H30v-248zM63-27c89 8 146-16 146-99s-60-101-146-95v194" id="D"/><path fill="#77e5d7" d="M141-36C126-15 110 5 73 4 37 3 15-17 15-53c-1-64 63-63 125-63 3-35-9-54-41-54-24 1-41 7-42 31l-33-3c5-37 33-52 76-52 45 0 72 20 72 64v82c-1 20 7 32 28 27v20c-31 9-61-2-59-35zM48-53c0 20 12 33 32 33 41-3 63-29 60-74-43 2-92-5-92 41" id="E"/><path fill="#77e5d7" d="M59-47c-2 24 18 29 38 22v24C64 9 27 4 27-40v-127H5v-23h24l9-43h21v43h35v23H59v120" id="F"/><path fill="#77e5d7" d="M115-194c53 0 69 39 70 98 0 66-23 100-70 100C84 3 66-7 56-30L54 0H23l1-261h32v101c10-23 28-34 59-34zm-8 174c40 0 45-34 45-75 0-40-5-75-45-74-42 0-51 32-51 76 0 43 10 73 51 73" id="G"/><path fill="#77e5d7" d="M135-143c-3-34-86-38-87 0 15 53 115 12 119 90S17 21 10-45l28-5c4 36 97 45 98 0-10-56-113-15-118-90-4-57 82-63 122-42 12 7 21 19 24 35" id="H"/><path fill="#77e5d7" d="M100-194c63 0 86 42 84 106H49c0 40 14 67 53 68 26 1 43-12 49-29l28 8c-11 28-37 45-77 45C44 4 14-33 15-96c1-61 26-98 85-98zm52 81c6-60-76-77-97-28-3 7-6 17-6 28h103" id="I"/><g id="c"><use transform="matrix(0.06172839506172839,0,0,0.06172839506172839,0,0)" xlink:href="#D"/><use transform="matrix(0.06172839506172839,0,0,0.06172839506172839,15.987654320987653,0)" xlink:href="#E"/><use transform="matrix(0.06172839506172839,0,0,0.06172839506172839,28.333333333333332,0)" xlink:href="#F"/><use transform="matrix(0.06172839506172839,0,0,0.06172839506172839,34.50617283950617,0)" xlink:href="#E"/><use transform="matrix(0.06172839506172839,0,0,0.06172839506172839,46.85185185185185,0)" xlink:href="#G"/><use transform="matrix(0.06172839506172839,0,0,0.06172839506172839,59.197530864197525,0)" xlink:href="#E"/><use transform="matrix(0.06172839506172839,0,0,0.06172839506172839,71.5432098765432,0)" xlink:href="#H"/><use transform="matrix(0.06172839506172839,0,0,0.06172839506172839,82.65432098765432,0)" xlink:href="#I"/></g><path fill="#333" d="M197 0v-115H63V0H30v-248h33v105h134v-105h34V0h-34" id="J"/><path fill="#333" d="M127-220V0H93v-220H8v-28h204v28h-85" id="K"/><path fill="#333" d="M30-248c87 1 191-15 191 75 0 78-77 80-158 76V0H30v-248zm33 125c57 0 124 11 124-50 0-59-68-47-124-48v98" id="L"/><g id="d"><use transform="matrix(0.06172839506172839,0,0,0.06172839506172839,0,0)" xlink:href="#J"/><use transform="matrix(0.06172839506172839,0,0,0.06172839506172839,15.987654320987653,0)" xlink:href="#K"/><use transform="matrix(0.06172839506172839,0,0,0.06172839506172839,29.50617283950617,0)" xlink:href="#K"/><use transform="matrix(0.06172839506172839,0,0,0.06172839506172839,43.02469135802469,0)" xlink:href="#L"/></g><path fill="#333" d="M205 0l-28-72H64L36 0H1l101-248h38L239 0h-34zm-38-99l-47-123c-12 45-31 82-46 123h93" id="M"/><path fill="#333" d="M33 0v-248h34V0H33" id="N"/><g id="e"><use transform="matrix(0.06172839506172839,0,0,0.06172839506172839,0,0)" xlink:href="#M"/><use transform="matrix(0.06172839506172839,0,0,0.06172839506172839,14.814814814814813,0)" xlink:href="#L"/><use transform="matrix(0.06172839506172839,0,0,0.06172839506172839,29.629629629629626,0)" xlink:href="#N"/></g><path fill="#333" d="M24-248c93 1 206-16 204 79-1 75-69 88-152 82V0H24v-248zm52 121c47 0 100 7 100-41 0-47-54-39-100-39v80" id="O"/><path fill="#333" d="M110-194c64 0 96 36 96 99 0 64-35 99-97 99-61 0-95-36-95-99 0-62 34-99 96-99zm-1 164c35 0 45-28 45-65 0-40-10-65-43-65-34 0-45 26-45 65 0 36 10 65 43 65" id="P"/><path fill="#333" d="M137-138c1-29-70-34-71-4 15 46 118 7 119 86 1 83-164 76-172 9l43-7c4 19 20 25 44 25 33 8 57-30 24-41C81-84 22-81 20-136c-2-80 154-74 161-7" id="Q"/><path fill="#333" d="M115-3C79 11 28 4 28-45v-112H4v-33h27l15-45h31v45h36v33H77v99c-1 23 16 31 38 25v30" id="R"/><g id="f"><use transform="matrix(0.04938271604938272,0,0,0.04938271604938272,0,0)" xlink:href="#O"/><use transform="matrix(0.04938271604938272,0,0,0.04938271604938272,11.851851851851853,0)" xlink:href="#P"/><use transform="matrix(0.04938271604938272,0,0,0.04938271604938272,22.666666666666668,0)" xlink:href="#Q"/><use transform="matrix(0.04938271604938272,0,0,0.04938271604938272,32.543209876543216,0)" xlink:href="#R"/></g><path d="M232-93c-1 65-40 97-104 97C67 4 28-28 28-90v-158h33c8 89-33 224 67 224 102 0 64-133 71-224h33v155" id="S"/><path d="M135-143c-3-34-86-38-87 0 15 53 115 12 119 90S17 21 10-45l28-5c4 36 97 45 98 0-10-56-113-15-118-90-4-57 82-63 122-42 12 7 21 19 24 35" id="T"/><path d="M114-163C36-179 61-72 57 0H25l-1-190h30c1 12-1 29 2 39 6-27 23-49 58-41v29" id="U"/><g id="g"><use transform="matrix(0.05,0,0,0.05,0,0)" xlink:href="#S"/><use transform="matrix(0.05,0,0,0.05,12.950000000000001,0)" xlink:href="#T"/><use transform="matrix(0.05,0,0,0.05,21.950000000000003,0)" xlink:href="#x"/><use transform="matrix(0.05,0,0,0.05,31.950000000000003,0)" xlink:href="#U"/></g><path d="M33 0v-248h34V0H33" id="V"/><path d="M100-194c62-1 85 37 85 99 1 63-27 99-86 99S16-35 15-95c0-66 28-99 85-99zM99-20c44 1 53-31 53-75 0-43-8-75-51-75s-53 32-53 75 10 74 51 75" id="W"/><path d="M117-194c89-4 53 116 60 194h-32v-121c0-31-8-49-39-48C34-167 62-67 57 0H25l-1-190h30c1 10-1 24 2 32 11-22 29-35 61-36" id="X"/><g id="h"><use transform="matrix(0.05,0,0,0.05,0,0)" xlink:href="#V"/><use transform="matrix(0.05,0,0,0.05,5,0)" xlink:href="#v"/><use transform="matrix(0.05,0,0,0.05,14,0)" xlink:href="#W"/><use transform="matrix(0.05,0,0,0.05,24,0)" xlink:href="#X"/></g><path fill="#333" d="M67-125c0 54 23 88 75 88 28 0 53-7 68-21v-34h-60v-39h108v91C232-14 192 4 140 4 58 4 20-42 15-125 8-236 126-280 215-234c19 10 29 26 37 47l-47 15c-11-23-29-39-63-39-53 1-75 33-75 86" id="Y"/><path fill="#333" d="M185-48c-13 30-37 53-82 52C43 2 14-33 14-96s30-98 90-98c62 0 83 45 84 108H66c0 31 8 55 39 56 18 0 30-7 34-22zm-45-69c5-46-57-63-70-21-2 6-4 13-4 21h74" id="Z"/><g id="i"><use transform="matrix(0.04938271604938272,0,0,0.04938271604938272,0,0)" xlink:href="#Y"/><use transform="matrix(0.04938271604938272,0,0,0.04938271604938272,13.827160493827162,0)" xlink:href="#Z"/><use transform="matrix(0.04938271604938272,0,0,0.04938271604938272,23.703703703703706,0)" xlink:href="#R"/></g><path fill="#333" d="M50-224l7-37h49l-7 37H50zm1 246C45 64 7 85-39 71l7-33c23 5 33-8 36-27l39-201h49" id="aa"/><path fill="#333" d="M144-137c-1-29-70-35-71-2 16 41 103 10 103 80C176 9 79 16 32-9 18-17 9-31 4-48l44-6c3 32 80 36 82 1-15-42-103-11-103-82 0-77 157-79 161-8" id="ab"/><path fill="#333" d="M124-194c51 0 84 22 84 74C207-44 167 4 94 4 43 4 11-23 11-74c0-74 41-120 113-120zM99-30c46 0 58-42 58-86 0-27-11-44-37-44-44 0-55 40-57 84-1 27 10 45 36 46" id="ac"/><path fill="#333" d="M151-194c95 0 34 128 28 194h-49l25-134c0-29-45-25-59-9C67-111 69-48 56 0H6l36-190h47l-4 32c15-20 33-36 66-36" id="ad"/><g id="j"><use transform="matrix(0.04938271604938272,0,0,0.04938271604938272,0,0)" xlink:href="#aa"/><use transform="matrix(0.04938271604938272,0,0,0.04938271604938272,4.938271604938272,0)" xlink:href="#ab"/><use transform="matrix(0.04938271604938272,0,0,0.04938271604938272,14.814814814814817,0)" xlink:href="#ac"/><use transform="matrix(0.04938271604938272,0,0,0.04938271604938272,25.629629629629633,0)" xlink:href="#ad"/></g><path fill="#333" d="M84-151c13-25 34-51 72-40l-8 41C67-170 71-64 56 0H6l36-190h47" id="ae"/><path fill="#333" d="M114-194c63-2 87 48 72 110H63c-3 28 1 55 31 54 21-1 32-13 37-29l44 13C160-14 137 4 91 4 41 4 11-22 11-73c0-71 33-119 103-121zm30 77c14-47-50-61-67-22-3 6-6 13-8 22h75" id="af"/><path fill="#333" d="M156-122c2-23-7-37-28-37-47 0-58 44-58 89 0 24 12 40 36 40 43 0 47-49 50-92zM-8 75l50-265h48c0 10-3 24-3 30 22-50 127-45 121 29-6 73-21 135-92 135-29 0-46-14-55-35L41 75H-8" id="ag"/><g id="k"><use transform="matrix(0.04938271604938272,0,0,0.04938271604938272,0,0)" xlink:href="#ae"/><use transform="matrix(0.04938271604938272,0,0,0.04938271604938272,6.913580246913581,0)" xlink:href="#af"/><use transform="matrix(0.04938271604938272,0,0,0.04938271604938272,16.790123456790127,0)" xlink:href="#ab"/><use transform="matrix(0.04938271604938272,0,0,0.04938271604938272,26.666666666666668,0)" xlink:href="#ag"/><use transform="matrix(0.04938271604938272,0,0,0.04938271604938272,37.48148148148149,0)" xlink:href="#ac"/><use transform="matrix(0.04938271604938272,0,0,0.04938271604938272,48.296296296296305,0)" xlink:href="#ad"/><use transform="matrix(0.04938271604938272,0,0,0.04938271604938272,59.111111111111114,0)" xlink:href="#ab"/><use transform="matrix(0.04938271604938272,0,0,0.04938271604938272,68.98765432098767,0)" xlink:href="#af"/></g><path fill="#333" d="M69 3c-96 0-34-126-28-193h49L65-57c6 42 62 18 71-6 14-38 17-86 28-127h50L178 0h-47c0-11 4-26 3-33-14 20-30 37-65 36" id="ah"/><path fill="#333" d="M132-28C118-9 101 4 69 4 30 4 10-23 10-62c0-70 24-129 92-132 31-1 47 14 56 35l19-102h49L179 0h-49zM62-69c0 22 7 39 29 39 45-2 54-45 57-90 2-27-10-40-33-40-44 0-53 48-53 91" id="ai"/><path fill="#333" d="M166-52c-4 17 5 29 24 23l-3 27c-30 11-74 1-67-34C105-15 91 4 56 4 23 4 3-15 2-49c0-64 63-67 128-67 10-22 3-53-29-45-13 3-22 10-25 24l-46-5c5-64 156-77 153 0-1 33-11 60-17 90zM97-88c-44-9-64 57-19 57 31 0 42-28 47-57H97" id="aj"/><path fill="#333" d="M72-63c-8 23 5 39 32 30L98-1C54 14 12-6 23-64l18-93H15l7-33h28l24-45h31l-8 45h35l-6 33H90" id="ak"/><g id="l"><use transform="matrix(0.04938271604938272,0,0,0.04938271604938272,0,0)" xlink:href="#ah"/><use transform="matrix(0.04938271604938272,0,0,0.04938271604938272,10.814814814814815,0)" xlink:href="#ag"/><use transform="matrix(0.04938271604938272,0,0,0.04938271604938272,21.62962962962963,0)" xlink:href="#ai"/><use transform="matrix(0.04938271604938272,0,0,0.04938271604938272,32.44444444444444,0)" xlink:href="#aj"/><use transform="matrix(0.04938271604938272,0,0,0.04938271604938272,42.32098765432099,0)" xlink:href="#ak"/><use transform="matrix(0.04938271604938272,0,0,0.04938271604938272,48.19753086419753,0)" xlink:href="#af"/></g><path fill="#333" d="M93-157L62 0H13l31-157H16l6-33h28c2-54 40-81 100-68l-6 32c-29-8-44 9-45 36h38l-7 33H93" id="al"/><path fill="#333" d="M67-101c-8 29-7 73 27 71 23-2 32-16 39-37l48 9C170-19 141 4 91 4 36 4 7-28 12-86c6-75 61-124 140-103 26 7 40 29 43 59l-50 4c-1-20-9-34-29-34-35 0-41 29-49 59" id="am"/><path fill="#333" d="M150-105c8-23 8-54-22-51-68 7-54 98-72 156H6l50-261h50L85-158c15-20 33-36 66-36 95 0 34 128 28 194h-49" id="an"/><g id="m"><use transform="matrix(0.04938271604938272,0,0,0.04938271604938272,0,0)" xlink:href="#al"/><use transform="matrix(0.04938271604938272,0,0,0.04938271604938272,5.8765432098765435,0)" xlink:href="#af"/><use transform="matrix(0.04938271604938272,0,0,0.04938271604938272,15.753086419753087,0)" xlink:href="#ak"/><use transform="matrix(0.04938271604938272,0,0,0.04938271604938272,21.629629629629633,0)" xlink:href="#am"/><use transform="matrix(0.04938271604938272,0,0,0.04938271604938272,31.506172839506174,0)" xlink:href="#an"/></g><path fill="#333" d="M185-189c-5-48-123-54-124 2 14 75 158 14 163 119 3 78-121 87-175 55-17-10-28-26-33-46l33-7c5 56 141 63 141-1 0-78-155-14-162-118-5-82 145-84 179-34 5 7 8 16 11 25" id="ao"/><path fill="#333" d="M24-231v-30h32v30H24zM24 0v-190h32V0H24" id="ap"/><path fill="#333" d="M210-169c-67 3-38 105-44 169h-31v-121c0-29-5-50-35-48C34-165 62-65 56 0H25l-1-190h30c1 10-1 24 2 32 10-44 99-50 107 0 11-21 27-35 58-36 85-2 47 119 55 194h-31v-121c0-29-5-49-35-48" id="aq"/><path fill="#333" d="M84 4C-5 8 30-112 23-190h32v120c0 31 7 50 39 49 72-2 45-101 50-169h31l1 190h-30c-1-10 1-25-2-33-11 22-28 36-60 37" id="ar"/><path fill="#333" d="M24 0v-261h32V0H24" id="as"/><path fill="#333" d="M141-36C126-15 110 5 73 4 37 3 15-17 15-53c-1-64 63-63 125-63 3-35-9-54-41-54-24 1-41 7-42 31l-33-3c5-37 33-52 76-52 45 0 72 20 72 64v82c-1 20 7 32 28 27v20c-31 9-61-2-59-35zM48-53c0 20 12 33 32 33 41-3 63-29 60-74-43 2-92-5-92 41" id="at"/><path fill="#333" d="M59-47c-2 24 18 29 38 22v24C64 9 27 4 27-40v-127H5v-23h24l9-43h21v43h35v23H59v120" id="au"/><path fill="#333" d="M100-194c62-1 85 37 85 99 1 63-27 99-86 99S16-35 15-95c0-66 28-99 85-99zM99-20c44 1 53-31 53-75 0-43-8-75-51-75s-53 32-53 75 10 74 51 75" id="av"/><path fill="#333" d="M114-163C36-179 61-72 57 0H25l-1-190h30c1 12-1 29 2 39 6-27 23-49 58-41v29" id="aw"/><path d="M30-248c87 1 191-15 191 75 0 78-77 80-158 76V0H30v-248zm33 125c57 0 124 11 124-50 0-59-68-47-124-48v98" id="ax"/><path d="M212-179c-10-28-35-45-73-45-59 0-87 40-87 99 0 60 29 101 89 101 43 0 62-24 78-52l27 14C228-24 195 4 139 4 59 4 22-46 18-125c-6-104 99-153 187-111 19 9 31 26 39 46" id="ay"/><g id="n"><use transform="matrix(0.06172839506172839,0,0,0.06172839506172839,0,0)" xlink:href="#ao"/><use transform="matrix(0.06172839506172839,0,0,0.06172839506172839,14.814814814814813,0)" xlink:href="#ap"/><use transform="matrix(0.06172839506172839,0,0,0.06172839506172839,19.691358024691354,0)" xlink:href="#aq"/><use transform="matrix(0.06172839506172839,0,0,0.06172839506172839,38.14814814814814,0)" xlink:href="#ar"/><use transform="matrix(0.06172839506172839,0,0,0.06172839506172839,50.493827160493815,0)" xlink:href="#as"/><use transform="matrix(0.06172839506172839,0,0,0.06172839506172839,55.37037037037036,0)" xlink:href="#at"/><use transform="matrix(0.06172839506172839,0,0,0.06172839506172839,67.71604938271604,0)" xlink:href="#au"/><use transform="matrix(0.06172839506172839,0,0,0.06172839506172839,73.88888888888887,0)" xlink:href="#av"/><use transform="matrix(0.06172839506172839,0,0,0.06172839506172839,86.23456790123456,0)" xlink:href="#aw"/><use transform="matrix(0.05,0,0,0.05,93.58024691358024,0)" xlink:href="#ax"/><use transform="matrix(0.05,0,0,0.05,105.58024691358024,0)" xlink:href="#ay"/></g><path fill="#333" d="M179-190L93 31C79 59 56 82 12 73V49c39 6 53-20 64-50L1-190h34L92-34l54-156h33" id="az"/><path fill="#333" d="M106-169C34-169 62-67 57 0H25v-261h32l-1 103c12-21 28-36 61-36 89 0 53 116 60 194h-32v-121c2-32-8-49-39-48" id="aA"/><path fill="#333" d="M117-194c89-4 53 116 60 194h-32v-121c0-31-8-49-39-48C34-167 62-67 57 0H25l-1-190h30c1 10-1 24 2 32 11-22 29-35 61-36" id="aB"/><g id="o"><use transform="matrix(0.06172839506172839,0,0,0.06172839506172839,0,0)" xlink:href="#L"/><use transform="matrix(0.06172839506172839,0,0,0.06172839506172839,14.814814814814813,0)" xlink:href="#az"/><use transform="matrix(0.06172839506172839,0,0,0.06172839506172839,25.925925925925924,0)" xlink:href="#au"/><use transform="matrix(0.06172839506172839,0,0,0.06172839506172839,32.098765432098766,0)" xlink:href="#aA"/><use transform="matrix(0.06172839506172839,0,0,0.06172839506172839,44.44444444444444,0)" xlink:href="#av"/><use transform="matrix(0.06172839506172839,0,0,0.06172839506172839,56.79012345679012,0)" xlink:href="#aB"/></g><g id="p"><use transform="matrix(0.06172839506172839,0,0,0.06172839506172839,0,0)" xlink:href="#L"/><use transform="matrix(0.06172839506172839,0,0,0.06172839506172839,14.814814814814813,0)" xlink:href="#J"/><use transform="matrix(0.06172839506172839,0,0,0.06172839506172839,30.80246913580247,0)" xlink:href="#L"/></g><path fill="#333" d="M266 0h-40l-56-210L115 0H75L2-248h35L96-30l15-64 43-154h32l59 218 59-218h35" id="aC"/><path fill="#333" d="M100-194c63 0 86 42 84 106H49c0 40 14 67 53 68 26 1 43-12 49-29l28 8c-11 28-37 45-77 45C44 4 14-33 15-96c1-61 26-98 85-98zm52 81c6-60-76-77-97-28-3 7-6 17-6 28h103" id="aD"/><path fill="#333" d="M115-194c53 0 69 39 70 98 0 66-23 100-70 100C84 3 66-7 56-30L54 0H23l1-261h32v101c10-23 28-34 59-34zm-8 174c40 0 45-34 45-75 0-40-5-75-45-74-42 0-51 32-51 76 0 43 10 73 51 73" id="aE"/><g id="q"><use transform="matrix(0.06172839506172839,0,0,0.06172839506172839,0,0)" xlink:href="#aC"/><use transform="matrix(0.06172839506172839,0,0,0.06172839506172839,20.493827160493826,0)" xlink:href="#aD"/><use transform="matrix(0.06172839506172839,0,0,0.06172839506172839,32.839506172839506,0)" xlink:href="#aE"/></g><path fill="#333" d="M135-143c-3-34-86-38-87 0 15 53 115 12 119 90S17 21 10-45l28-5c4 36 97 45 98 0-10-56-113-15-118-90-4-57 82-63 122-42 12 7 21 19 24 35" id="aF"/><path fill="#333" d="M108 0H70L1-190h34L89-25l56-165h34" id="aG"/><g id="r"><use transform="matrix(0.06172839506172839,0,0,0.06172839506172839,0,0)" xlink:href="#aF"/><use transform="matrix(0.06172839506172839,0,0,0.06172839506172839,11.11111111111111,0)" xlink:href="#aD"/><use transform="matrix(0.06172839506172839,0,0,0.06172839506172839,23.45679012345679,0)" xlink:href="#aw"/><use transform="matrix(0.06172839506172839,0,0,0.06172839506172839,30.80246913580247,0)" xlink:href="#aG"/><use transform="matrix(0.06172839506172839,0,0,0.06172839506172839,41.91358024691358,0)" xlink:href="#aD"/><use transform="matrix(0.06172839506172839,0,0,0.06172839506172839,54.25925925925926,0)" xlink:href="#aw"/></g></defs></g></svg>